<svg xmlns="http://www.w3.org/2000/svg" viewBox="0 0 100 100" fill="none" role="img" aria-label="Kata"><path d="M54.66,16.82L54.09,16.49L53.50,16.28L52.89,16.10L52.29,15.94L51.67,15.80L51.05,15.67L50.43,15.55L49.81,15.45L49.18,15.36L48.54,15.28L47.91,15.21L47.27,15.16L46.63,15.11L45.98,15.08L45.34,15.06L44.69,15.05L44.04,15.06L43.39,15.07L42.74,15.14L42.10,15.22L41.45,15.31L40.81,15.42L40.17,15.54L39.53,15.67L38.89,15.81L38.26,15.97L37.62,16.14L36.99,16.33L36.37,16.52L35.74,16.73L35.12,16.95L34.50,17.18L33.89,17.43L33.28,17.69L32.67,17.96L32.07,18.24L31.48,18.53L30.89,18.83L30.30,19.15L29.72,19.48L29.15,19.82L28.58,20.17L28.02,20.53L27.46,20.90L26.91,21.29L26.37,21.68L25.84,22.08L25.31,22.50L24.79,22.93L24.28,23.36L23.77,23.81L23.27,24.26L22.79,24.73L22.31,25.20L21.83,25.69L21.37,26.18L20.92,26.68L20.47,27.20L20.04,27.72L19.61,28.25L19.20,28.78L18.79,29.33L18.40,29.88L18.01,30.44L17.63,31.01L17.27,31.59L16.91,32.17L16.57,32.76L16.24,33.36L15.92,33.96L15.61,34.57L15.31,35.19L15.02,35.81L14.74,36.44L14.48,37.07L14.22,37.71L13.98,38.35L13.75,39.00L13.54,39.65L13.33,40.31L13.14,40.97L12.96,41.64L12.79,42.31L12.63,42.98L12.49,43.66L12.36,44.33L12.24,45.02L12.14,45.70L12.05,46.39L11.97,47.07L11.90,47.76L11.84,48.45L11.80,49.15L11.77,49.84L11.76,50.53L11.76,51.23L11.77,51.92L11.79,52.62L11.83,53.31L11.88,54.01L11.94,54.70L12.02,55.39L12.10,56.08L12.21,56.77L12.32,57.46L12.45,58.15L12.59,58.83L12.74,59.51L12.90,60.19L13.08,60.87L13.27,61.54L13.48,62.21L13.69,62.87L13.92,63.53L14.16,64.19L14.41,64.84L14.68,65.49L14.96,66.13L15.24,66.77L15.55,67.40L15.86,68.03L16.18,68.65L16.52,69.27L16.87,69.88L17.23,70.48L17.60,71.08L17.98,71.66L18.37,72.25L18.77,72.82L19.19,73.39L19.61,73.95L20.05,74.50L20.49,75.04L20.95,75.58L21.41,76.10L21.89,76.62L22.37,77.13L22.87,77.63L23.37,78.12L23.88,78.60L24.40,79.07L24.93,79.54L25.47,79.99L26.02,80.43L26.57,80.86L27.14,81.28L27.71,81.69L28.29,82.09L28.87,82.48L29.47,82.86L30.07,83.23L30.67,83.58L31.29,83.93L31.90,84.26L32.53,84.58L33.16,84.89L33.80,85.19L34.44,85.48L35.09,85.75L35.74,86.01L36.40,86.26L37.06,86.50L37.73,86.73L38.40,86.94L39.07,87.14L39.75,87.32L40.43,87.50L41.11,87.66L41.80,87.81L42.49,87.95L43.18,88.07L43.87,88.18L44.57,88.28L45.26,88.36L45.96,88.43L46.66,88.49L47.36,88.54L48.06,88.57L48.76,88.59L49.46,88.60L50.16,88.59L50.86,88.57L51.56,88.54L52.26,88.49L52.96,88.43L53.65,88.36L54.35,88.28L55.04,88.18L55.73,88.07L56.42,87.94L57.10,87.81L57.79,87.66L58.46,87.50L59.14,87.32L59.81,87.14L60.48,86.94L61.14,86.73L61.80,86.50L62.46,86.27L63.11,86.02L63.76,85.76L64.40,85.49L65.03,85.21L65.66,84.91L66.28,84.60L66.90,84.29L67.51,83.96L68.12,83.62L68.71,83.26L69.30,82.90L69.89,82.53L70.46,82.15L71.03,81.75L71.59,81.35L72.14,80.93L72.69,80.51L73.23,80.07L73.75,79.63L74.27,79.17L74.78,78.71L75.28,78.24L75.77,77.76L76.26,77.27L76.73,76.77L77.19,76.26L77.65,75.74L78.09,75.22L78.52,74.69L78.94,74.15L79.36,73.60L79.76,73.05L80.15,72.49L80.53,71.92L80.90,71.35L81.26,70.77L81.60,70.18L81.94,69.59L82.26,68.99L82.57,68.38L82.87,67.77L83.16,67.16L83.44,66.54L83.70,65.92L83.96,65.29L84.20,64.66L84.43,64.02L84.64,63.38L84.85,62.74L85.04,62.09L85.22,61.44L85.39,60.79L85.54,60.14L85.68,59.48L85.81,58.82L85.93,58.16L85.97,57.49L86.01,56.82L86.03,56.15L86.04,55.48L86.04,54.81L86.03,54.14L86.00,53.48L85.97,52.82L85.92,52.16L85.86,51.50L85.79,50.85L85.71,50.20L85.62,49.55L85.52,48.91L85.41,48.27L85.28,47.63L85.15,47.00L85.01,46.37L84.85,45.75L84.69,45.12L84.51,44.51L84.33,43.90L84.13,43.29L83.93,42.69L83.72,42.09L83.49,41.50L83.26,40.91L83.02,40.33L82.77,39.76L82.51,39.19L82.24,38.62L81.96,38.06L81.67,37.51L81.38,36.96L81.08,36.42L80.76,35.89L80.44,35.36L80.12,34.84L79.78,34.33L79.43,33.82L79.08,33.32L78.72,32.83L78.35,32.34L78.02,31.83L77.69,31.32L77.03,31.77L77.35,32.26L77.67,32.76L77.93,33.30L78.17,33.84L78.40,34.39L78.62,34.93L78.84,35.48L79.04,36.04L79.23,36.59L79.40,37.15L79.57,37.72L79.73,38.28L79.87,38.84L80.00,39.41L80.12,39.98L80.23,40.55L80.32,41.12L80.41,41.69L80.48,42.26L80.54,42.84L80.59,43.41L80.63,43.98L80.65,44.55L80.67,45.12L80.67,45.69L80.66,46.26L80.64,46.82L80.61,47.39L80.57,47.95L80.51,48.51L80.45,49.06L80.37,49.62L80.28,50.17L80.19,50.72L80.08,51.26L79.96,51.80L79.83,52.34L79.69,52.87L79.54,53.40L79.38,53.92L79.21,54.44L79.03,54.95L78.84,55.46L78.64,55.96L78.43,56.46L78.27,56.97L78.10,57.47L77.93,57.97L77.74,58.46L77.55,58.95L77.35,59.44L77.14,59.92L76.92,60.40L76.70,60.87L76.46,61.34L76.22,61.81L75.97,62.27L75.72,62.72L75.45,63.17L75.18,63.62L74.90,64.06L74.62,64.49L74.33,64.92L74.02,65.34L73.72,65.76L73.40,66.17L73.08,66.57L72.75,66.97L72.42,67.37L72.08,67.75L71.73,68.13L71.38,68.51L71.02,68.87L70.66,69.23L70.28,69.59L69.91,69.93L69.52,70.27L69.14,70.61L68.74,70.93L68.34,71.25L67.94,71.56L67.53,71.87L67.12,72.16L66.70,72.45L66.28,72.73L65.85,73.01L65.42,73.27L64.98,73.53L64.54,73.78L64.09,74.02L63.65,74.26L63.19,74.48L62.74,74.70L62.28,74.91L61.82,75.11L61.35,75.31L60.88,75.49L60.41,75.67L59.94,75.84L59.46,76.00L58.98,76.15L58.50,76.29L58.02,76.43L57.53,76.55L57.05,76.67L56.56,76.78L56.07,76.88L55.58,76.97L55.08,77.06L54.59,77.13L54.09,77.20L53.60,77.25L53.10,77.30L52.60,77.34L52.11,77.37L51.61,77.40L51.11,77.41L50.61,77.41L50.11,77.41L49.62,77.40L49.12,77.38L48.62,77.35L48.13,77.31L47.63,77.26L47.14,77.20L46.65,77.14L46.16,77.07L45.67,76.98L45.18,76.89L44.69,76.80L44.21,76.69L43.73,76.57L43.25,76.45L42.77,76.32L42.30,76.18L41.82,76.03L41.35,75.87L40.89,75.71L40.42,75.53L39.96,75.35L39.51,75.16L39.05,74.97L38.60,74.76L38.15,74.55L37.71,74.33L37.27,74.10L36.84,73.86L36.41,73.62L35.98,73.37L35.56,73.11L35.14,72.84L34.73,72.57L34.32,72.29L33.92,72.00L33.52,71.71L33.13,71.41L32.74,71.10L32.36,70.78L31.98,70.46L31.61,70.14L31.25,69.80L30.89,69.46L30.54,69.11L30.19,68.76L29.85,68.40L29.51,68.03L29.19,67.66L28.87,67.29L28.55,66.90L28.24,66.52L27.94,66.12L27.65,65.72L27.36,65.32L27.08,64.91L26.80,64.50L26.54,64.08L26.28,63.65L26.02,63.22L25.78,62.79L25.54,62.35L25.31,61.91L25.09,61.47L24.88,61.02L24.67,60.56L24.47,60.11L24.28,59.65L24.10,59.18L23.93,58.71L23.76,58.24L23.60,57.77L23.45,57.29L23.31,56.81L23.18,56.33L23.05,55.85L22.94,55.36L22.83,54.87L22.73,54.38L22.64,53.88L22.56,53.39L22.48,52.89L22.42,52.39L22.36,51.89L22.32,51.39L22.28,50.89L22.25,50.39L22.23,49.88L22.21,49.38L22.21,48.87L22.21,48.37L22.23,47.86L22.25,47.36L22.28,46.85L22.32,46.35L22.37,45.84L22.43,45.34L22.50,44.83L22.58,44.33L22.66,43.83L22.75,43.33L22.86,42.83L22.97,42.33L23.09,41.83L23.22,41.34L23.36,40.85L23.50,40.36L23.66,39.87L23.82,39.38L23.99,38.90L24.18,38.42L24.36,37.94L24.56,37.46L24.77,36.99L24.98,36.52L25.21,36.05L25.44,35.59L25.68,35.13L25.93,34.68L26.18,34.23L26.45,33.78L26.72,33.33L27.00,32.90L27.29,32.46L27.59,32.03L27.89,31.61L28.20,31.19L28.52,30.77L28.85,30.36L29.19,29.96L29.53,29.56L29.88,29.16L30.23,28.77L30.60,28.39L30.97,28.01L31.35,27.64L31.73,27.28L32.12,26.92L32.52,26.57L32.93,26.22L33.34,25.88L33.75,25.55L34.18,25.22L34.61,24.90L35.04,24.59L35.49,24.29L35.93,23.99L36.39,23.70L36.85,23.41L37.31,23.14L37.78,22.87L38.26,22.61L38.74,22.35L39.23,22.11L39.72,21.87L40.21,21.64L40.71,21.42L41.22,21.20L41.73,20.99L42.24,20.80L42.76,20.60L43.28,20.42L43.81,20.25L44.34,20.08L44.86,19.88L45.40,19.70L45.93,19.52L46.48,19.35L47.02,19.19L47.57,19.05L48.13,18.91L48.69,18.78L49.26,18.66L49.82,18.55L50.40,18.45L50.97,18.36L51.55,18.28L52.13,18.21L52.72,18.14L53.31,18.07L53.91,17.99L54.52,17.82Z" fill="#0d0d0f"/><rect x="71.75" y="73.75" width="10.5" height="10.5" rx="2.10" fill="#E34234"/></svg>